<svg xmlns="http://www.w3.org/2000/svg" viewBox="0 0 256 256" width="256" height="256" role="img" aria-labelledby="title desc">
  <title id="title">PhantomPool favicon</title>
  <desc id="desc">3D glass-gradient phantom mascot icon for PhantomPool blockchain brand.</desc>

  <defs>
    <!-- gradients -->
    <linearGradient id="g1" x1="0" y1="0" x2="1" y2="1">
      <stop offset="0" stop-color="#00F0FF"/>
      <stop offset="0.45" stop-color="#7B61FF"/>
      <stop offset="1" stop-color="#FF4FD8"/>
    </linearGradient>

    <linearGradient id="gDark" x1="0" y1="1" x2="1" y2="0">
      <stop offset="0" stop-color="#08122A"/>
      <stop offset="1" stop-color="#1B0E3A" stop-opacity="0.15"/>
    </linearGradient>

    <radialGradient id="gGloss" cx="30%" cy="20%" r="60%">
      <stop offset="0" stop-color="#FFFFFF" stop-opacity="0.7"/>
      <stop offset="0.25" stop-color="#FFFFFF" stop-opacity="0.2"/>
      <stop offset="1" stop-color="#FFFFFF" stop-opacity="0"/>
    </radialGradient>

    <linearGradient id="gRipple" x1="0" y1="0" x2="1" y2="0">
      <stop offset="0" stop-color="#7B61FF"/>
      <stop offset="0.6" stop-color="#00F0FF"/>
      <stop offset="1" stop-color="#FF4FD8"/>
    </linearGradient>

    <filter id="glow" x="-50%" y="-50%" width="200%" height="200%">
      <feGaussianBlur stdDeviation="6" result="b"/>
      <feMerge><feMergeNode in="b"/><feMergeNode in="SourceGraphic"/></feMerge>
    </filter>
  </defs>

  <!-- background -->
  <rect width="256" height="256" rx="48" fill="#050814"/>

  <!-- glow ripple -->
  <g transform="translate(128,180)" opacity="0.9" filter="url(#glow)">
    <ellipse rx="72" ry="20" fill="none" stroke="url(#gRipple)" stroke-width="4" opacity="0.35"/>
    <ellipse rx="52" ry="14" fill="none" stroke="url(#gRipple)" stroke-width="3" opacity="0.5"/>
  </g>

  <!-- ghost body -->
  <g transform="translate(128,120)">
    <path d="M-52,-10 C-52,-60 -10,-90 0,-90 C10,-90 52,-60 52,-10 C52,10 34,20 30,34 C26,48 18,58 0,62 C-18,58 -26,48 -30,34 C-34,20 -52,10 -52,-10Z"
          fill="url(#g1)" />
    <path d="M-44,-6 C-44,-46 -12,-70 0,-70 C12,-70 44,-46 44,-6 C44,10 32,16 28,28 C24,40 16,48 0,52 C-16,48 -24,40 -28,28 C-32,16 -44,10 -44,-6Z"
          fill="url(#gDark)" opacity="0.25"/>
    <path d="M-16,-72 C-6,-80 6,-82 18,-72 C28,-64 32,-52 26,-44 C20,-36 8,-30 -2,-28 C-12,-26 -22,-30 -28,-38 C-34,-46 -28,-64 -16,-72Z"
          fill="url(#gGloss)" opacity="0.9"/>
    <ellipse cx="-16" cy="-10" rx="8" ry="12" fill="#040612" opacity="0.9"/>
    <ellipse cx="16" cy="-10" rx="8" ry="12" fill="#040612" opacity="0.9"/>
    <rect x="-10" y="10" width="20" height="6" rx="3" fill="#040612" opacity="0.9"/>
  </g>

  <!-- outer glow outline -->
  <path d="M76,110 C76,70 118,40 128,40 C138,40 180,70 180,110 C180,126 164,134 158,148 C152,162 144,172 128,176 C112,172 104,162 98,148 C92,134 76,126 76,110Z"
        fill="none" stroke="url(#g1)" stroke-width="3" opacity="0.5" filter="url(#glow)"/>
</svg>
