<svg width="512" height="512" viewBox="0 0 512 512" fill="none" xmlns="http://www.w3.org/2000/svg">
  <!-- Background Circle -->
  <circle cx="256" cy="256" r="240" fill="url(#gradient-bg)" stroke="url(#gradient-border)" stroke-width="4"/>
  
  <!-- Phantom P Symbol -->
  <g transform="translate(256,256)">
    <!-- Main P Shape -->
    <path d="M-80 -120 L-80 120 L-40 120 L-40 20 L40 20 C60 20 80 0 80 -20 L80 -60 C80 -80 60 -100 40 -100 L-80 -100 Z" fill="url(#gradient-main)"/>
    <!-- P Inner Bar -->
    <path d="M-40 -60 L40 -60 C50 -60 60 -50 60 -40 C60 -30 50 -20 40 -20 L-40 -20 Z" fill="url(#gradient-inner)"/>
    
    <!-- Encryption Dots -->
    <circle cx="100" cy="-80" r="8" fill="url(#gradient-accent)" opacity="0.8">
      <animate attributeName="opacity" values="0.4;1;0.4" dur="2s" repeatCount="indefinite"/>
    </circle>
    <circle cx="120" cy="-60" r="6" fill="url(#gradient-accent)" opacity="0.6">
      <animate attributeName="opacity" values="0.6;1;0.6" dur="2.5s" repeatCount="indefinite"/>
    </circle>
    <circle cx="100" cy="-40" r="4" fill="url(#gradient-accent)" opacity="0.4">
      <animate attributeName="opacity" values="0.8;1;0.8" dur="3s" repeatCount="indefinite"/>
    </circle>
    
    <!-- Lock Symbol -->
    <g transform="translate(80,40) scale(0.8)">
      <rect x="0" y="10" width="30" height="25" rx="3" fill="url(#gradient-lock)"/>
      <path d="M5 10 L5 0 C5 -8 10 -15 15 -15 C20 -15 25 -8 25 0 L25 10" stroke="url(#gradient-lock)" stroke-width="3" fill="none"/>
      <circle cx="15" cy="20" r="3" fill="#1a1a1a"/>
    </g>
  </g>
  
  <!-- Decorative Elements -->
  <g opacity="0.3">
    <!-- Corner Accents -->
    <path d="M50 50 L90 50 L90 90" stroke="url(#gradient-accent)" stroke-width="2" fill="none"/>
    <path d="M462 50 L422 50 L422 90" stroke="url(#gradient-accent)" stroke-width="2" fill="none"/>
    <path d="M50 462 L90 462 L90 422" stroke="url(#gradient-accent)" stroke-width="2" fill="none"/>
    <path d="M462 462 L422 462 L422 422" stroke="url(#gradient-accent)" stroke-width="2" fill="none"/>
  </g>
  
  <!-- Gradients -->
  <defs>
    <linearGradient id="gradient-bg" x1="0%" y1="0%" x2="100%" y2="100%">
      <stop offset="0%" style="stop-color:#0f0f23;stop-opacity:1" />
      <stop offset="50%" style="stop-color:#1a1a2e;stop-opacity:1" />
      <stop offset="100%" style="stop-color:#16213e;stop-opacity:1" />
    </linearGradient>
    
    <linearGradient id="gradient-border" x1="0%" y1="0%" x2="100%" y2="100%">
      <stop offset="0%" style="stop-color:#8b5cf6;stop-opacity:1" />
      <stop offset="50%" style="stop-color:#3b82f6;stop-opacity:1" />
      <stop offset="100%" style="stop-color:#06b6d4;stop-opacity:1" />
    </linearGradient>
    
    <linearGradient id="gradient-main" x1="0%" y1="0%" x2="100%" y2="100%">
      <stop offset="0%" style="stop-color:#ffffff;stop-opacity:1" />
      <stop offset="100%" style="stop-color:#e2e8f0;stop-opacity:1" />
    </linearGradient>
    
    <linearGradient id="gradient-inner" x1="0%" y1="0%" x2="100%" y2="100%">
      <stop offset="0%" style="stop-color:#0f0f23;stop-opacity:1" />
      <stop offset="100%" style="stop-color:#1a1a2e;stop-opacity:1" />
    </linearGradient>
    
    <linearGradient id="gradient-accent" x1="0%" y1="0%" x2="100%" y2="100%">
      <stop offset="0%" style="stop-color:#8b5cf6;stop-opacity:1" />
      <stop offset="50%" style="stop-color:#3b82f6;stop-opacity:1" />
      <stop offset="100%" style="stop-color:#06b6d4;stop-opacity:1" />
    </linearGradient>
    
    <linearGradient id="gradient-lock" x1="0%" y1="0%" x2="100%" y2="100%">
      <stop offset="0%" style="stop-color:#fbbf24;stop-opacity:1" />
      <stop offset="100%" style="stop-color:#f59e0b;stop-opacity:1" />
    </linearGradient>
  </defs>
</svg>